<mxfile host="Electron" modified="2023-04-26T00:44:39.481Z" agent="Mozilla/5.0 (Windows NT 10.0; Win64; x64) AppleWebKit/537.36 (KHTML, like Gecko) draw.io/21.1.2 Chrome/106.0.5249.199 Electron/21.4.3 Safari/537.36" etag="pO_BMG9pw9An8bDUWP7q" version="21.1.2" type="device">
  <diagram name="Página-1" id="aA6BPnNgXVh45fCJk3sC">
    <mxGraphModel dx="1050" dy="621" grid="1" gridSize="10" guides="1" tooltips="1" connect="1" arrows="1" fold="1" page="1" pageScale="1" pageWidth="827" pageHeight="1169" math="0" shadow="0">
      <root>
        <mxCell id="0" />
        <mxCell id="1" parent="0" />
        <mxCell id="X0nTdpByvHZywLPCyEU8-3" style="edgeStyle=orthogonalEdgeStyle;rounded=0;orthogonalLoop=1;jettySize=auto;html=1;entryX=0;entryY=0.5;entryDx=0;entryDy=0;" edge="1" parent="1" source="X0nTdpByvHZywLPCyEU8-1" target="X0nTdpByvHZywLPCyEU8-2">
          <mxGeometry relative="1" as="geometry" />
        </mxCell>
        <mxCell id="X0nTdpByvHZywLPCyEU8-1" value="" style="rounded=0;whiteSpace=wrap;html=1;" vertex="1" parent="1">
          <mxGeometry x="34" y="120" width="360" height="320" as="geometry" />
        </mxCell>
        <mxCell id="X0nTdpByvHZywLPCyEU8-2" value="" style="rounded=0;whiteSpace=wrap;html=1;" vertex="1" parent="1">
          <mxGeometry x="434" y="120" width="360" height="320" as="geometry" />
        </mxCell>
        <mxCell id="X0nTdpByvHZywLPCyEU8-4" value="" style="strokeColor=#dddddd;shadow=1;strokeWidth=1;rounded=1;absoluteArcSize=1;arcSize=2;" vertex="1" parent="1">
          <mxGeometry x="450" y="130" width="150" height="44" as="geometry" />
        </mxCell>
        <mxCell id="X0nTdpByvHZywLPCyEU8-5" value="Frontend&#xa;Platform Services" style="sketch=0;dashed=0;connectable=0;html=1;fillColor=#757575;strokeColor=none;shape=mxgraph.gcp2.frontend_platform_services;part=1;labelPosition=right;verticalLabelPosition=middle;align=left;verticalAlign=middle;spacingLeft=5;fontSize=12;" vertex="1" parent="X0nTdpByvHZywLPCyEU8-4">
          <mxGeometry y="0.5" width="32" height="32" relative="1" as="geometry">
            <mxPoint x="5" y="-16" as="offset" />
          </mxGeometry>
        </mxCell>
        <mxCell id="X0nTdpByvHZywLPCyEU8-7" value="" style="strokeColor=#dddddd;shadow=1;strokeWidth=1;rounded=1;absoluteArcSize=1;arcSize=2;" vertex="1" parent="1">
          <mxGeometry x="50" y="130" width="150" height="44" as="geometry" />
        </mxCell>
        <mxCell id="X0nTdpByvHZywLPCyEU8-8" value="Backend&lt;br&gt;Platform Services" style="sketch=0;dashed=0;connectable=0;html=1;fillColor=#757575;strokeColor=none;shape=mxgraph.gcp2.frontend_platform_services;part=1;labelPosition=right;verticalLabelPosition=middle;align=left;verticalAlign=middle;spacingLeft=5;fontSize=12;" vertex="1" parent="X0nTdpByvHZywLPCyEU8-7">
          <mxGeometry y="0.5" width="32" height="32" relative="1" as="geometry">
            <mxPoint x="5" y="-16" as="offset" />
          </mxGeometry>
        </mxCell>
        <mxCell id="X0nTdpByvHZywLPCyEU8-11" style="edgeStyle=orthogonalEdgeStyle;rounded=0;orthogonalLoop=1;jettySize=auto;html=1;" edge="1" parent="1" source="X0nTdpByvHZywLPCyEU8-10">
          <mxGeometry relative="1" as="geometry">
            <mxPoint x="132.33999999999992" y="480" as="targetPoint" />
          </mxGeometry>
        </mxCell>
        <mxCell id="X0nTdpByvHZywLPCyEU8-10" value="" style="dashed=0;outlineConnect=0;html=1;align=center;labelPosition=center;verticalLabelPosition=bottom;verticalAlign=top;shape=mxgraph.weblogos.java" vertex="1" parent="1">
          <mxGeometry x="171.66" y="200" width="84.68" height="160" as="geometry" />
        </mxCell>
        <mxCell id="X0nTdpByvHZywLPCyEU8-13" value="" style="rounded=0;whiteSpace=wrap;html=1;" vertex="1" parent="1">
          <mxGeometry x="34" y="480" width="446" height="180" as="geometry" />
        </mxCell>
        <mxCell id="X0nTdpByvHZywLPCyEU8-14" value="Users" style="swimlane;fontStyle=0;childLayout=stackLayout;horizontal=1;startSize=26;fillColor=none;horizontalStack=0;resizeParent=1;resizeParentMax=0;resizeLast=0;collapsible=1;marginBottom=0;whiteSpace=wrap;html=1;" vertex="1" parent="1">
          <mxGeometry x="60" y="500" width="140" height="104" as="geometry" />
        </mxCell>
        <mxCell id="X0nTdpByvHZywLPCyEU8-15" value="+ cpf: number" style="text;strokeColor=none;fillColor=none;align=left;verticalAlign=top;spacingLeft=4;spacingRight=4;overflow=hidden;rotatable=0;points=[[0,0.5],[1,0.5]];portConstraint=eastwest;whiteSpace=wrap;html=1;" vertex="1" parent="X0nTdpByvHZywLPCyEU8-14">
          <mxGeometry y="26" width="140" height="26" as="geometry" />
        </mxCell>
        <mxCell id="X0nTdpByvHZywLPCyEU8-16" value="+ nome: String" style="text;strokeColor=none;fillColor=none;align=left;verticalAlign=top;spacingLeft=4;spacingRight=4;overflow=hidden;rotatable=0;points=[[0,0.5],[1,0.5]];portConstraint=eastwest;whiteSpace=wrap;html=1;" vertex="1" parent="X0nTdpByvHZywLPCyEU8-14">
          <mxGeometry y="52" width="140" height="26" as="geometry" />
        </mxCell>
        <mxCell id="X0nTdpByvHZywLPCyEU8-36" value="+ email: String" style="text;strokeColor=none;fillColor=none;align=left;verticalAlign=top;spacingLeft=4;spacingRight=4;overflow=hidden;rotatable=0;points=[[0,0.5],[1,0.5]];portConstraint=eastwest;whiteSpace=wrap;html=1;" vertex="1" parent="X0nTdpByvHZywLPCyEU8-14">
          <mxGeometry y="78" width="140" height="26" as="geometry" />
        </mxCell>
        <mxCell id="X0nTdpByvHZywLPCyEU8-27" value="Jobs" style="swimlane;fontStyle=0;childLayout=stackLayout;horizontal=1;startSize=26;fillColor=none;horizontalStack=0;resizeParent=1;resizeParentMax=0;resizeLast=0;collapsible=1;marginBottom=0;whiteSpace=wrap;html=1;" vertex="1" parent="1">
          <mxGeometry x="280" y="500" width="180" height="140" as="geometry" />
        </mxCell>
        <mxCell id="X0nTdpByvHZywLPCyEU8-28" value="+ id: number" style="text;strokeColor=none;fillColor=none;align=left;verticalAlign=top;spacingLeft=4;spacingRight=4;overflow=hidden;rotatable=0;points=[[0,0.5],[1,0.5]];portConstraint=eastwest;whiteSpace=wrap;html=1;" vertex="1" parent="X0nTdpByvHZywLPCyEU8-27">
          <mxGeometry y="26" width="180" height="24" as="geometry" />
        </mxCell>
        <mxCell id="X0nTdpByvHZywLPCyEU8-29" value="+ title: String" style="text;strokeColor=none;fillColor=none;align=left;verticalAlign=top;spacingLeft=4;spacingRight=4;overflow=hidden;rotatable=0;points=[[0,0.5],[1,0.5]];portConstraint=eastwest;whiteSpace=wrap;html=1;" vertex="1" parent="X0nTdpByvHZywLPCyEU8-27">
          <mxGeometry y="50" width="180" height="30" as="geometry" />
        </mxCell>
        <mxCell id="X0nTdpByvHZywLPCyEU8-33" value="+ description: String" style="text;strokeColor=none;fillColor=none;align=left;verticalAlign=top;spacingLeft=4;spacingRight=4;overflow=hidden;rotatable=0;points=[[0,0.5],[1,0.5]];portConstraint=eastwest;whiteSpace=wrap;html=1;" vertex="1" parent="X0nTdpByvHZywLPCyEU8-27">
          <mxGeometry y="80" width="180" height="30" as="geometry" />
        </mxCell>
        <mxCell id="X0nTdpByvHZywLPCyEU8-34" value="+ company: String" style="text;strokeColor=none;fillColor=none;align=left;verticalAlign=top;spacingLeft=4;spacingRight=4;overflow=hidden;rotatable=0;points=[[0,0.5],[1,0.5]];portConstraint=eastwest;whiteSpace=wrap;html=1;" vertex="1" parent="X0nTdpByvHZywLPCyEU8-27">
          <mxGeometry y="110" width="180" height="30" as="geometry" />
        </mxCell>
        <mxCell id="X0nTdpByvHZywLPCyEU8-39" style="edgeStyle=orthogonalEdgeStyle;rounded=0;orthogonalLoop=1;jettySize=auto;html=1;entryX=0;entryY=0.5;entryDx=0;entryDy=0;" edge="1" parent="1" source="X0nTdpByvHZywLPCyEU8-16" target="X0nTdpByvHZywLPCyEU8-29">
          <mxGeometry relative="1" as="geometry" />
        </mxCell>
        <mxCell id="X0nTdpByvHZywLPCyEU8-47" value="&lt;h1&gt;Arquitetura&lt;/h1&gt;&lt;p&gt;Proposta de arquitetura de Solução&lt;/p&gt;" style="text;html=1;strokeColor=none;fillColor=none;spacing=5;spacingTop=-20;whiteSpace=wrap;overflow=hidden;rounded=0;" vertex="1" parent="1">
          <mxGeometry x="34" y="20" width="375" height="70" as="geometry" />
        </mxCell>
        <mxCell id="X0nTdpByvHZywLPCyEU8-48" value="" style="shape=image;verticalLabelPosition=bottom;labelBackgroundColor=default;verticalAlign=top;aspect=fixed;imageAspect=0;image=https://upload.wikimedia.org/wikipedia/commons/thumb/8/8e/Nextjs-logo.svg/1200px-Nextjs-logo.svg.png;" vertex="1" parent="1">
          <mxGeometry x="491.36" y="240" width="245.28" height="50" as="geometry" />
        </mxCell>
        <mxCell id="X0nTdpByvHZywLPCyEU8-49" value="" style="shape=image;verticalLabelPosition=bottom;labelBackgroundColor=default;verticalAlign=top;aspect=fixed;imageAspect=0;image=https://cdn4.iconfinder.com/data/icons/logos-3/600/React.js_logo-512.png;" vertex="1" parent="1">
          <mxGeometry x="566" y="310" width="96" height="96" as="geometry" />
        </mxCell>
      </root>
    </mxGraphModel>
  </diagram>
</mxfile>
